<?xml version="1.0" encoding="UTF-8" standalone="no"?><!DOCTYPE svg PUBLIC "-//W3C//DTD SVG 1.1//EN" "http://www.w3.org/Graphics/SVG/1.1/DTD/svg11.dtd"><svg width="100%" height="100%" viewBox="0 0 16 16" version="1.1" xmlns="http://www.w3.org/2000/svg" xmlns:xlink="http://www.w3.org/1999/xlink" xml:space="preserve" xmlns:serif="http://www.serif.com/" style="fill-rule:evenodd;clip-rule:evenodd;stroke-linejoin:round;stroke-miterlimit:1.41421;"><rect id="Address" x="0" y="0" width="16" height="16" style="fill:none;"/><rect x="1" y="1" width="14" height="14" style="fill:#fff;fill-rule:nonzero;"/><path d="M14,2l0,12l-12,0l0,-12l12,0m1,-1l-14,0l0,14l14,0l0,-14Z" style="fill:#999;fill-rule:nonzero;"/><path d="M7.787,9.207c0.061,0.054 0.137,0.08 0.213,0.08c0.076,0 0.152,-0.026 0.213,-0.08c0.077,-0.068 1.89,-1.683 1.89,-3.359c0,-1.159 -0.944,-2.103 -2.103,-2.103c-1.159,0 -2.103,0.944 -2.103,2.103c0,1.676 1.813,3.291 1.89,3.359Zm0.213,-3.908c0.301,0 0.545,0.246 0.545,0.549c0,0.304 -0.244,0.55 -0.545,0.55c-0.301,0 -0.545,-0.246 -0.545,-0.55c0,-0.303 0.244,-0.549 0.545,-0.549Z" style="fill:#59f;fill-rule:nonzero;"/><path d="M12.04,9.206l-0.243,-0.853c-0.04,-0.139 -0.166,-0.234 -0.31,-0.234l-1.739,0c-0.063,0.093 -0.129,0.187 -0.199,0.281c-0.487,0.655 -0.983,1.097 -1.037,1.146c-0.142,0.124 -0.323,0.193 -0.512,0.193c-0.188,0 -0.37,-0.069 -0.512,-0.193c-0.054,-0.049 -0.55,-0.491 -1.037,-1.146c-0.07,-0.094 -0.136,-0.188 -0.199,-0.281l-1.739,0c-0.144,0 -0.27,0.095 -0.31,0.234l-0.29,1.017l6.489,1.188l1.638,-1.352Z" style="fill:#cecece;fill-rule:nonzero;"/><path d="M12.793,11.844l-0.622,-2.181l-3.088,2.592l3.4,0c0.101,0 0.196,-0.048 0.257,-0.128c0.061,-0.081 0.081,-0.186 0.053,-0.283Z" style="fill:#79a548;fill-rule:nonzero;"/><path d="M4.774,9.986l-0.985,-0.18l-0.582,2.038c-0.028,0.097 -0.008,0.202 0.053,0.283c0.061,0.08 0.156,0.128 0.257,0.128l1.257,0l0,-2.269Z" style="fill:#79a548;fill-rule:nonzero;"/><path d="M5.225,10.069l0,2.186l3.156,0l1.572,-1.32l-4.728,-0.866Z" style="fill:#ffc857;fill-rule:nonzero;"/></svg>