<?xml version="1.0" encoding="UTF-8" standalone="no"?>
<!DOCTYPE svg PUBLIC "-//W3C//DTD SVG 1.1//EN" "http://www.w3.org/Graphics/SVG/1.1/DTD/svg11.dtd">
<svg width="100%" height="100%" viewBox="0 0 16 16" version="1.1" xmlns="http://www.w3.org/2000/svg" xmlns:xlink="http://www.w3.org/1999/xlink" xml:space="preserve" xmlns:serif="http://www.serif.com/" style="fill-rule:evenodd;clip-rule:evenodd;stroke-linejoin:round;stroke-miterlimit:2;">
    <path d="M2,0L2,16L14,16L14,4L10,0L2,0Z" style="fill:rgb(239,239,239);fill-rule:nonzero;"/>
    <path d="M10,3.98L10,0L14,4L10,3.98Z" style="fill:white;fill-opacity:0.65;fill-rule:nonzero;"/>
    <path d="M13,5L13,10L9,5L13,5Z" style="fill-opacity:0.2;fill-rule:nonzero;"/>
    <path d="M2,0L2,16L14,16L14,4L13.988,4L13.992,3.992L10.008,0.006L10,0.014L10,0L2,0ZM3,1L9,1L9,5L13,5L13,15L3,15L3,1ZM10,1.412L12.586,4L10,4L10,1.412Z" style="fill:rgb(153,153,153);fill-rule:nonzero;"/>
    <g transform="matrix(0.806614,0,0,0.806614,4.23199,4.23279)">
        <path d="M11.733,1.412C11.118,1.412 10.503,1.648 10.032,2.119L8.044,4.107C7.591,4.557 7.337,5.17 7.337,5.809C7.337,6.447 7.591,7.06 8.044,7.51L8.491,7.957C8.941,8.41 9.554,8.664 10.192,8.664C10.831,8.664 11.444,8.41 11.894,7.957L13.882,5.969C14.335,5.519 14.589,4.906 14.589,4.267C14.589,3.629 14.335,3.016 13.882,2.566L13.435,2.119C12.984,1.667 12.371,1.412 11.733,1.412ZM11.551,2.533C11.987,2.511 12.487,2.713 12.887,3.113C13.527,3.753 13.658,4.651 13.182,5.129L11.055,7.256C10.578,7.733 9.677,7.603 9.037,6.963C8.397,6.323 8.267,5.424 8.744,4.945L10.871,2.818C11.05,2.639 11.289,2.546 11.551,2.533ZM5.808,7.336C5.193,7.336 4.578,7.572 4.107,8.043L2.119,10.031C1.666,10.481 1.412,11.094 1.412,11.733C1.412,12.371 1.666,12.984 2.119,13.434L2.566,13.881C3.016,14.334 3.629,14.588 4.267,14.588C4.906,14.588 5.519,14.334 5.969,13.881L7.957,11.893C8.41,11.443 8.664,10.83 8.664,10.192C8.664,9.553 8.41,8.94 7.957,8.49L7.51,8.043C7.059,7.591 6.446,7.337 5.808,7.336ZM5.625,8.458C6.061,8.436 6.563,8.638 6.963,9.038C7.603,9.678 7.733,10.577 7.256,11.056L5.129,13.183C4.652,13.66 3.753,13.528 3.113,12.888C2.473,12.248 2.342,11.35 2.818,10.872L4.945,8.745C5.123,8.566 5.363,8.471 5.625,8.458Z" style="fill:rgb(51,51,51);fill-rule:nonzero;"/>
        <path d="M8.018,7.535L8.465,7.982C8.794,8.311 9.211,8.537 9.666,8.632L10.982,7.316C10.495,7.745 9.632,7.609 9.011,6.988C9.329,6.781 7.866,7.189 8.018,7.535ZM7.515,8.047L7.962,8.494C8.305,8.837 8.519,9.256 8.612,9.695L7.296,11.011C7.725,10.524 7.589,9.66 6.968,9.04C6.76,9.357 7.168,7.895 7.515,8.047Z" style="fill-opacity:0.3;fill-rule:nonzero;"/>
        <path d="M5.002,9.458L9.465,4.995C9.721,4.739 10.274,4.876 10.699,5.301C11.124,5.726 11.261,6.279 11.005,6.535L6.542,10.998C6.286,11.254 5.733,11.117 5.308,10.692C4.883,10.267 4.746,9.714 5.002,9.458Z" style="fill:rgb(89,89,89);fill-rule:nonzero;"/>
    </g>
</svg>
